<svg width="414" height="896" viewBox="0 0 414 896" fill="none" xmlns="http://www.w3.org/2000/svg">
<g clip-path="url(#clip0_230_744)">
<rect width="414" height="896" fill="#308C7B"/>
<path d="M-36.779 189.046H367L421.079 546.546C421.079 546.546 243 459 168.915 517.5C94.829 576 -90.4211 611.497 -90.4211 478.5C-90.4211 345.503 -36.779 189.046 -36.779 189.046Z" fill="#D9B282"/>
<path opacity="0.5" d="M-14.3157 188.299L402.346 188.299L456.5 567C456.5 567 280 414.5 149 515C18 615.5 -153.5 530.188 -153.5 349.5C-153.5 168.812 -14.3157 188.299 -14.3157 188.299Z" fill="#F25F5C"/>
<path d="M-7.40356 182H410.326L487.5 553.5C487.5 553.5 313 409 159.5 497.5C6 586 -66 497.212 -66 378.5C-66 259.788 -7.40356 182 -7.40356 182Z" fill="#F4D35E" fill-opacity="0.81"/>
<path d="M-21.2461 -53H420.112L440.5 497.5C440.5 497.5 323.5 420.5 185 473C46.4999 525.5 -34 519.284 -34 407.5C-34 295.716 -21.2461 -53 -21.2461 -53Z" fill="#FDEDB4"/>
<path d="M-11.705 -51L461.647 -40.5L471.295 483.464C471.295 483.464 318.5 400 195.147 455.5C71.7949 511 -85 496.718 -85 252C-85 7.28189 -11.705 -51 -11.705 -51Z" fill="#FBF2D2"/>
</g>
<defs>
<clipPath id="clip0_230_744">
<rect width="414" height="896" fill="white"/>
</clipPath>
</defs>
</svg>
