<svg width="414" height="896" viewBox="0 0 414 896" fill="none" xmlns="http://www.w3.org/2000/svg">
<g clip-path="url(#clip0_230_726)">
<rect width="414" height="896" fill="#308C7B"/>
<path d="M-0.0564089 307H413.519L432 628.893C432 628.893 394.039 535.208 209.229 628.893C24.4185 722.579 -55 724.791 -55 593.261C-55 461.731 -0.0564089 307 -0.0564089 307Z" fill="#D9B282"/>
<path opacity="0.5" d="M11.8938 307.299L428.556 307.299L497 759C497 759 421.561 500.313 222.723 650.449C23.8841 800.586 -119 653.771 -119 473.083C-119 292.394 11.8938 307.299 11.8938 307.299Z" fill="#F25F5C"/>
<path d="M1.00183 263H415.002L490 601.37C490 601.37 326.5 506.179 182.5 615.769C38.5 725.36 -65 679.047 -65 546.575C-65 414.104 1.00183 263 1.00183 263Z" fill="#F4D35E" fill-opacity="0.81"/>
<path d="M-3 -17.5H428.5L533 544.674C533 544.674 326.5 470.586 205 578.771C83.5 686.956 -36 699.049 -36 567.213C-36 435.378 -3 -17.5 -3 -17.5Z" fill="#FBF2D2"/>
</g>
<defs>
<clipPath id="clip0_230_726">
<rect width="414" height="896" fill="white"/>
</clipPath>
</defs>
</svg>
