<?xml version="1.0" standalone="no"?>
<!DOCTYPE svg PUBLIC "-//W3C//DTD SVG 20010904//EN"
 "http://www.w3.org/TR/2001/REC-SVG-20010904/DTD/svg10.dtd">
<svg version="1.0" xmlns="http://www.w3.org/2000/svg"
 width="260.000000pt" height="260.000000pt" viewBox="0 0 260.000000 260.000000"
 preserveAspectRatio="xMidYMid meet">
<metadata>
Created by potrace 1.14, written by Peter Selinger 2001-2017
</metadata>
<g transform="translate(0.000000,260.000000) scale(0.100000,-0.100000)"
fill="#000000" stroke="none">
<path d="M1960 2507 c-88 -25 -156 -82 -202 -170 -19 -35 -23 -58 -23 -132 0
-101 18 -150 81 -216 l34 -35 -19 -75 c-19 -75 -50 -159 -135 -363 l-45 -110
-81 -57 c-44 -32 -80 -56 -80 -53 0 2 34 55 75 117 41 61 75 118 75 125 0 7
-108 140 -239 296 -204 240 -245 284 -273 290 -18 3 -52 16 -77 28 -28 13 -76
24 -130 29 -47 4 -196 33 -330 64 -134 31 -245 55 -246 53 -2 -2 -80 -181
-174 -398 l-171 -395 142 -355 143 -355 133 -3 c72 -1 132 -4 132 -5 0 -1 -9
-26 -20 -55 -103 -271 81 -560 400 -628 116 -25 271 -15 383 23 48 17 113 46
144 64 76 45 174 138 214 202 18 29 34 54 36 56 1 2 31 -5 65 -15 86 -25 287
-26 378 -1 220 59 387 209 435 392 50 192 -24 367 -221 525 -28 23 -36 42 -83
220 -28 107 -57 233 -63 278 -12 80 -11 84 7 94 39 22 95 92 115 145 31 84 28
175 -10 251 -35 68 -92 125 -156 153 -56 25 -156 33 -214 16z m-1372 -287 c97
-22 186 -44 196 -48 17 -7 16 -10 -12 -21 -28 -12 -38 -11 -83 8 -30 13 -65
21 -87 19 -34 -3 -37 -6 -37 -33 0 -23 9 -36 42 -60 23 -16 40 -34 38 -40 -2
-5 -15 -36 -28 -68 l-25 -59 -19 29 c-29 42 -183 300 -183 307 0 10 15 7 198
-34z m-114 -168 c64 -106 116 -199 116 -206 0 -33 34 -119 63 -162 l33 -48
-189 -386 c-104 -212 -192 -389 -197 -393 -4 -5 -22 29 -40 75 -18 45 -35 89
-38 96 -4 12 -1 12 15 2 60 -38 118 44 111 156 -3 49 -9 70 -26 86 -51 51
-116 -26 -117 -139 0 -34 -1 -61 -1 -60 -1 1 -40 98 -88 216 l-86 214 162 373
c89 206 163 373 164 371 1 -1 54 -89 118 -195z m517 62 c67 -20 148 -97 167
-160 27 -93 9 -181 -51 -250 -59 -67 -107 -89 -197 -89 -85 0 -122 15 -183 73
-42 41 -77 123 -77 181 0 132 123 257 256 260 17 1 55 -6 85 -15z m264 -146
c55 -67 153 -184 218 -260 65 -77 117 -142 114 -144 -2 -2 -103 10 -225 28
-187 27 -222 35 -222 48 0 9 9 25 19 34 11 10 25 31 31 47 l12 29 39 -34 c46
-43 88 -65 126 -68 112 -8 32 118 -100 157 -41 12 -41 13 -38 53 4 56 -22 139
-59 190 -59 82 -13 39 85 -80z m268 -997 c52 -58 69 -97 74 -171 20 -289 -397
-527 -739 -420 -156 48 -251 158 -251 290 0 67 16 118 57 185 l31 50 6 -90
c11 -153 24 -196 72 -242 86 -83 185 -124 300 -124 83 0 108 6 192 50 87 45
191 141 220 203 19 42 21 55 13 110 -5 35 -22 100 -37 145 l-27 81 26 -13 c15
-8 43 -32 63 -54z"/>
<path d="M324 2093 c-46 -46 -61 -180 -26 -223 46 -57 114 21 115 131 1 91
-44 137 -89 92z"/>
<path d="M225 1836 c-30 -30 -59 -127 -51 -170 10 -51 28 -70 59 -62 65 16
102 190 51 241 -21 21 -31 19 -59 -9z"/>
<path d="M492 1775 c-11 -14 -26 -48 -32 -76 -31 -126 38 -217 104 -139 28 34
41 99 33 161 -10 75 -66 104 -105 54z"/>
<path d="M117 1582 c-26 -28 -42 -105 -31 -148 17 -70 62 -71 96 -3 47 91 -7
216 -65 151z"/>
<path d="M370 1518 c-29 -32 -53 -118 -44 -165 10 -61 30 -85 67 -81 27 2 36
11 55 48 59 118 -3 278 -78 198z"/>
</g>
</svg>
